<svg xmlns="http://www.w3.org/2000/svg" viewBox="-34.49 -566.87 2239.91 758.76" role="img" aria-label="Sphotography">
  <defs>
    <radialGradient id="nibGlow" cx="50%" cy="50%" r="50%">
      <stop offset="0%" stop-color="#ffffff" stop-opacity="1"/>
      <stop offset="45%" stop-color="#ffffff" stop-opacity="0.9"/>
      <stop offset="100%" stop-color="#ffffff" stop-opacity="0"/>
    </radialGradient>
    <mask id="reveal" maskUnits="userSpaceOnUse" x="-34.49" y="-566.87" width="2239.91" height="758.76">
      <rect x="-34.49" y="-566.87" width="0" height="758.76" fill="#fff">
        <animate attributeName="width" dur="2.4s" fill="freeze" calcMode="linear"
                 keyTimes="0;0.5833;1" values="0;725.04;2239.91"/>
      </rect>
    </mask>
  </defs>
  
  <g mask="url(#reveal)" fill="#ffffff">
    <path d="M87.4 0.76Q45.980000000000004 0.76 22.990000000000002 -14.44Q0.0 -29.64 0.0 -51.3Q0.0 -68.02 11.78 -75.43Q23.56 -82.84 35.34 -82.84Q41.8 -82.84 48.07 -78.66Q54.34 -74.48 54.34 -65.36Q54.34 -58.14 47.88 -52.25Q41.42 -46.36 32.68 -46.36Q21.28 -46.36 15.2 -50.160000000000004V-48.26Q15.2 -31.54 34.39 -19.95Q53.58 -8.36 81.32000000000001 -8.36Q121.98 -8.36 154.66 -28.69Q187.34 -49.02 215.07999999999998 -82.46000000000001Q242.82 -115.9 267.71000000000004 -156.56Q292.6 -197.22 317.3 -238.26L324.9 -250.8Q264.86 -253.08 217.55 -268.85Q170.24 -284.62 143.83 -311.98Q117.42 -339.34000000000003 119.7 -375.44Q121.6 -409.26 144.01999999999998 -437.95Q166.44 -466.64 203.87 -487.73Q241.3 -508.82 288.61 -520.6Q335.92 -532.38 387.98 -532.38Q416.1 -532.38 437.19000000000005 -527.06Q458.28000000000003 -521.74 458.28000000000003 -516.42Q458.28000000000003 -514.9 453.72 -514.9Q451.06 -514.9 448.59000000000003 -515.47Q446.12 -516.04 443.08 -516.42Q430.92 -519.46 418.19 -521.55Q405.46 -523.64 387.6 -523.64Q343.52 -523.64 301.15 -512.4300000000001Q258.78000000000003 -501.22 224.01000000000002 -480.70000000000005Q189.24 -460.18 168.15 -431.68Q147.06 -403.18 145.16 -368.22Q143.64000000000001 -345.42 163.21 -321.1Q182.78 -296.78000000000003 224.57999999999998 -279.68Q266.38 -262.58 330.98 -260.3Q421.8 -403.18 497.79999999999995 -467.78Q573.8 -532.38 642.2 -532.38Q665.0 -532.38 678.3 -520.22Q691.6 -508.06 690.46 -485.26Q688.94 -456.0 664.8100000000001 -419.52Q640.6800000000001 -383.04 599.26 -348.08000000000004Q557.84 -313.12 503.88 -287.28Q449.92 -261.44 387.98 -253.46Q355.68 -203.68 322.24 -157.89Q288.8 -112.1 252.51 -76.38Q216.22 -40.660000000000004 175.37 -19.950000000000003Q134.52 0.76 87.4 0.76ZM395.2 -264.1Q449.92 -273.22 498.94000000000005 -298.11Q547.96 -323.0 585.96 -356.06Q623.96 -389.12 646.19 -423.70000000000005Q668.42 -458.28000000000003 669.94 -486.78000000000003Q671.84 -507.3 661.96 -515.28Q652.08 -523.26 641.82 -522.88Q594.7 -521.36 541.69 -465.88Q488.68 -410.4 422.18 -305.9Q415.34000000000003 -295.26 408.5 -285.0Q401.66 -274.74 395.2 -264.1Z"/>
    <path d="M252.53159999999997 141.8Q250.1316 141.8 245.4316 141.3Q240.7316 140.8 237.93159999999997 140.0Q253.33159999999998 119.2 272.73159999999996 93.0Q292.1316 66.8 312.8316 38.4Q333.53159999999997 10.0 353.23159999999996 -17.3Q372.9316 -44.6 388.53159999999997 -67.4Q400.1316 -83.4 407.9316 -94.0Q415.7316 -104.60000000000001 422.4316 -113.4Q429.1316 -122.2 436.8316 -132.4Q444.5316 -142.6 455.63160000000005 -157.5Q466.7316 -172.4 483.7316 -195.4Q490.9316 -194.60000000000002 495.2316 -194.40000000000003Q499.5316 -194.20000000000002 502.5316 -194.20000000000002Q505.3316 -194.20000000000002 508.23159999999996 -194.5Q511.1316 -194.8 513.9316 -195.60000000000002Q496.3316 -174.20000000000002 484.3316 -159.70000000000002Q472.3316 -145.20000000000002 464.1316 -135.10000000000002Q455.9316 -125.0 449.5316 -116.80000000000001Q443.1316 -108.60000000000001 436.8316 -100.20000000000002Q430.5316 -91.80000000000001 422.3316 -80.70000000000002Q414.1316 -69.60000000000001 401.9316 -53.2L403.3316 -51.6Q465.5316 -111.4 495.1316 -126.80000000000001Q504.5316 -131.6 511.8316 -134.3Q519.1315999999999 -137.0 531.3316 -137.0Q541.3316 -137.0 545.8316 -132.4Q550.3316 -127.80000000000001 550.3316 -120.4Q550.3316 -105.2 537.0316 -87.2Q523.7316 -69.2 490.1316 -45.400000000000006Q470.1316 -31.200000000000003 464.1316 -24.900000000000002Q458.1316 -18.6 458.1316 -14.200000000000001Q458.1316 -5.2 472.3316 -5.2Q486.3316 -5.2 500.9316 -14.1Q515.5316 -23.0 529.1316 -35.900000000000006Q542.7316000000001 -48.800000000000004 553.6316 -61.400000000000006Q564.5316 -74.0 570.7316000000001 -81.2L575.1315999999999 -77.80000000000001Q569.1315999999999 -71.0 558.0316 -58.2Q546.9316 -45.400000000000006 532.4316 -31.900000000000006Q517.9316 -18.400000000000002 502.1316 -9.000000000000002Q486.3316 0.4 471.1316 0.4Q459.3316 0.4 453.6316 -4.9Q447.9316 -10.200000000000001 447.9316 -19.400000000000002Q447.9316 -33.0 462.9316 -52.0Q477.9316 -71.0 513.7316 -97.60000000000001Q531.5316 -110.4 535.5316 -116.2Q539.5316 -122.0 539.5316 -125.60000000000001Q539.5316 -128.0 537.4316 -130.0Q535.3316 -132.0 531.3316 -132.0Q521.9316 -132.0 512.9316 -128.8Q503.9316 -125.60000000000001 493.5316 -119.4Q480.7316 -112.0 464.5316 -99.2Q448.3316 -86.4 431.1316 -70.5Q413.9316 -54.6 397.4316 -37.400000000000006Q380.9316 -20.200000000000003 367.1316 -3.8000000000000003Q357.1316 9.4 344.8316 27.400000000000002Q332.53159999999997 45.400000000000006 320.03159999999997 64.4Q307.53159999999997 83.4 296.8316 100.0Q286.1316 116.60000000000001 279.23159999999996 127.6Q272.3316 138.6 271.3316 140.20000000000002Q269.3316 140.8 264.73159999999996 141.3Q260.1316 141.8 252.53159999999997 141.8ZM652.5316 0.4Q643.3316 0.4 634.6315999999999 -3.8Q625.9316 -8.0 625.9316 -15.0Q625.9316 -20.400000000000002 628.4316 -27.700000000000003Q630.9316 -35.0 639.9316 -47.8Q648.9316 -60.6 668.5316 -82.60000000000001Q684.3316 -100.4 690.3316 -110.2Q696.3316 -120.0 696.3316 -124.80000000000001Q696.3316 -127.60000000000001 694.4316 -129.8Q692.5316 -132.0 686.9316 -132.0Q682.3316 -132.0 674.4316 -129.4Q666.5316 -126.80000000000001 657.1316 -120.60000000000001Q641.3316 -109.80000000000001 617.9316 -87.30000000000001Q594.5316 -64.8 565.1316 -28.200000000000003L546.7316000000001 -3.8000000000000003Q543.5316 -4.4 540.7316000000001 -4.6000000000000005Q537.9316 -4.800000000000001 535.1316 -4.800000000000001Q527.9316 -4.800000000000001 523.0316 -4.1000000000000005Q518.1316 -3.4000000000000004 515.9316 -2.8000000000000003L737.3316 -319.0Q739.9316 -318.8 744.2316000000001 -318.4Q748.5316 -318.0 756.5316 -318.20000000000005Q758.1316 -318.20000000000005 760.3316 -318.5Q762.5316 -318.8 765.1316 -319.0L566.7316000000001 -43.6L567.7316000000001 -41.400000000000006Q598.3316 -76.60000000000001 619.7316000000001 -96.70000000000002Q641.1316 -116.80000000000001 655.3316 -126.4Q665.3316 -132.8 673.8316 -134.9Q682.3316 -137.0 688.7316000000001 -137.0Q701.7316000000001 -137.0 707.2316000000001 -130.7Q712.7316000000001 -124.4 712.3316 -116.80000000000001Q711.9316 -108.80000000000001 706.9316 -97.70000000000002Q701.9316 -86.60000000000001 689.6315999999999 -70.10000000000001Q677.3316 -53.6 654.9316 -29.400000000000002Q644.9316 -18.6 642.8316 -15.5Q640.7316000000001 -12.4 640.7316000000001 -9.8Q640.7316000000001 -7.800000000000001 645.1316 -6.5Q649.5316 -5.2 654.9316 -5.2Q667.5316 -5.2 680.4316 -12.200000000000001Q693.3316 -19.200000000000003 705.3316 -29.800000000000004Q717.3316 -40.400000000000006 727.1315999999999 -51.400000000000006Q736.9316 -62.400000000000006 743.6315999999999 -70.7Q750.3316 -79.0 752.3316 -81.2L756.7316000000001 -77.80000000000001Q754.1316 -75.2 747.2316000000001 -66.5Q740.3316 -57.800000000000004 729.9316 -46.5Q719.5316 -35.2 706.9316 -24.5Q694.3316 -13.8 680.4316 -6.7Q666.5316 0.4 652.5316 0.4ZM764.1316 0.4Q747.3316000000001 0.4 739.3316000000001 -7.3Q731.3316000000001 -15.0 730.3316000000001 -26.200000000000003Q729.7316000000001 -39.800000000000004 736.0316 -55.400000000000006Q742.3316000000001 -71.0 749.7316000000001 -81.60000000000001Q759.5316 -95.4 773.5316 -108.10000000000001Q787.5316 -120.80000000000001 804.2316000000001 -128.9Q820.9316000000001 -137.0 838.5316 -137.0Q849.1316 -137.0 856.8316 -131.5Q864.5316 -126.0 865.3316000000001 -114.0Q866.3316000000001 -97.0 858.7316000000001 -78.3Q851.1316 -59.6 838.1316 -43.6Q839.5316 -37.800000000000004 847.1316 -37.800000000000004Q854.5316 -37.800000000000004 863.3316 -43.7Q872.1316 -49.6 880.4316000000001 -57.60000000000001Q888.7316000000001 -65.60000000000001 894.7316000000001 -72.4Q900.7316000000001 -79.2 902.7316000000001 -81.2L907.1316 -77.80000000000001Q903.3316000000001 -74.2 896.3316000000001 -66.7Q889.3316000000001 -59.2 880.8316000000001 -51.300000000000004Q872.3316000000001 -43.400000000000006 863.4316000000001 -37.800000000000004Q854.5316 -32.2 846.7316000000001 -32.2Q837.1316 -32.2 833.7316000000001 -38.2Q818.9316000000001 -21.400000000000002 800.4316000000001 -10.500000000000002Q781.9316 0.4 764.1316 0.4ZM769.3316000000001 -5.6000000000000005Q776.3316000000001 -5.6000000000000005 785.5316 -9.600000000000001Q794.7316000000001 -13.600000000000001 803.9316 -20.200000000000003Q819.3316000000001 -31.200000000000003 831.7316000000001 -46.0V-46.800000000000004Q831.7316000000001 -59.2 838.2316000000001 -66.5Q844.7316000000001 -73.8 850.9316000000001 -75.8Q860.7316000000001 -96.2 859.7316000000001 -112.4Q859.1316 -122.2 854.6316 -126.0Q850.1316 -129.8 844.7316000000001 -129.8Q833.1316 -129.8 816.2316000000001 -116.10000000000001Q799.3316000000001 -102.4 778.5316 -76.60000000000001Q763.7316000000001 -58.0 757.8316 -45.2Q751.9316 -32.4 752.7316000000001 -23.0Q752.7316000000001 -17.6 756.4316000000001 -11.600000000000001Q760.1316 -5.6000000000000005 769.3316000000001 -5.6000000000000005ZM888.9316 0.4Q877.9316 0.4 872.4316 -4.0Q866.9316 -8.4 866.9316 -15.200000000000001Q866.9316 -20.6 868.3316 -25.900000000000002Q869.7316000000001 -31.200000000000003 874.3316 -39.400000000000006Q878.9316 -47.6 888.3316 -61.5Q897.7316000000001 -75.4 913.7316000000001 -98.0L965.3316 -170.60000000000002H949.5316Q943.5316 -170.60000000000002 943.5316 -173.20000000000002Q943.5316 -176.4 951.1316 -176.4H969.3316L1006.3316 -228.4Q1008.9316 -228.0 1013.2316000000001 -227.7Q1017.5316 -227.4 1025.5316 -227.60000000000002Q1029.5316 -227.60000000000002 1034.1316000000002 -228.4L995.5316 -176.4H1047.1316000000002Q1052.7316 -176.4 1052.7316 -173.60000000000002Q1052.7316 -170.60000000000002 1047.7316 -170.60000000000002H991.1316L938.3316 -99.4Q919.5316 -74.2 908.1316 -58.0Q896.7316000000001 -41.800000000000004 890.8316 -32.400000000000006Q884.9316 -23.0 882.8316 -18.4Q880.7316000000001 -13.8 880.7316000000001 -11.600000000000001Q880.7316000000001 -5.6000000000000005 890.7316000000001 -5.2Q904.5316 -5.4 919.2316000000001 -14.3Q933.9316 -23.200000000000003 947.5316 -36.1Q961.1316 -49.0 971.9316000000001 -61.5Q982.7316000000001 -74.0 988.7316000000001 -81.2L993.1316 -77.80000000000001Q987.3316 -71.0 976.1315999999999 -58.2Q964.9316 -45.400000000000006 950.4316 -31.900000000000006Q935.9316 -18.400000000000002 920.1315999999999 -9.000000000000002Q904.3316 0.4 888.9316 0.4ZM1000.3316 0.4Q983.5316 0.4 975.5316 -7.3Q967.5316 -15.0 966.5316 -26.200000000000003Q965.9316 -39.800000000000004 972.2316000000001 -55.400000000000006Q978.5316 -71.0 985.9316 -81.60000000000001Q995.7316 -95.4 1009.7316 -108.10000000000001Q1023.7316 -120.80000000000001 1040.4316 -128.9Q1057.1316 -137.0 1074.7316 -137.0Q1085.3316 -137.0 1093.0316 -131.5Q1100.7316 -126.0 1101.5316 -114.0Q1102.5316 -97.0 1094.9316 -78.3Q1087.3316 -59.6 1074.3316 -43.6Q1075.7316 -37.800000000000004 1083.3316 -37.800000000000004Q1090.7316 -37.800000000000004 1099.5316 -43.7Q1108.3316 -49.6 1116.6316 -57.60000000000001Q1124.9316 -65.60000000000001 1130.9316 -72.4Q1136.9316 -79.2 1138.9316 -81.2L1143.3316 -77.80000000000001Q1139.5316 -74.2 1132.5316 -66.7Q1125.5316 -59.2 1117.0316 -51.300000000000004Q1108.5316 -43.400000000000006 1099.6316000000002 -37.800000000000004Q1090.7316 -32.2 1082.9316 -32.2Q1073.3316 -32.2 1069.9316 -38.2Q1055.1316 -21.400000000000002 1036.6316 -10.500000000000002Q1018.1315999999999 0.4 1000.3316 0.4ZM1005.5316 -5.6000000000000005Q1012.5316 -5.6000000000000005 1021.7316 -9.600000000000001Q1030.9316 -13.600000000000001 1040.1316 -20.200000000000003Q1055.5316 -31.200000000000003 1067.9316 -46.0V-46.800000000000004Q1067.9316 -59.2 1074.4316 -66.5Q1080.9316 -73.8 1087.1316 -75.8Q1096.9316 -96.2 1095.9316 -112.4Q1095.3316 -122.2 1090.8316 -126.0Q1086.3316 -129.8 1080.9316 -129.8Q1069.3316 -129.8 1052.4316 -116.10000000000001Q1035.5316 -102.4 1014.7316 -76.60000000000001Q999.9316 -58.0 994.0316 -45.2Q988.1315999999999 -32.4 988.9316 -23.0Q988.9316 -17.6 992.6315999999999 -11.600000000000001Q996.3316 -5.6000000000000005 1005.5316 -5.6000000000000005ZM1022.5316 157.4Q1014.1316 157.4 1008.4316000000001 153.0Q1002.7316000000001 148.6 1002.7316000000001 144.0Q1002.5316 135.6 1008.8316 126.1Q1015.1316 116.60000000000001 1030.9316000000001 105.0Q1046.7316 93.4 1074.4316000000001 79.0Q1102.1316000000002 64.60000000000001 1144.5316 46.6Q1160.9316000000001 26.6 1180.8316 1.8000000000000007Q1200.7316 -23.0 1225.1316000000002 -53.6L1223.5316 -54.400000000000006Q1197.3316 -24.6 1176.5316 -12.100000000000001Q1155.7316 0.4 1143.1316000000002 0.4Q1130.5316 0.4 1124.5316 -6.6000000000000005Q1118.5316 -13.600000000000001 1118.1316000000002 -25.8Q1118.1316000000002 -39.2 1123.6316000000002 -54.400000000000006Q1129.1316000000002 -69.60000000000001 1141.9316000000001 -84.60000000000001Q1159.1316000000002 -105.60000000000001 1175.8316 -116.9Q1192.5316 -128.20000000000002 1207.7316 -132.60000000000002Q1222.9316000000001 -137.0 1235.5316 -137.0Q1248.5316 -137.0 1256.3316 -132.60000000000002Q1264.1316000000002 -128.20000000000002 1264.3316 -120.60000000000001Q1264.3316 -114.80000000000001 1261.9316000000001 -108.80000000000001Q1268.1316000000002 -116.4 1272.5316000000003 -122.0Q1276.9316000000001 -127.60000000000001 1280.7316 -133.0Q1282.9316000000001 -132.4 1286.4316000000001 -131.9Q1289.9316000000001 -131.4 1293.3316 -131.4Q1295.9316000000001 -131.4 1300.7316 -131.60000000000002Q1305.5316 -131.8 1308.1316000000002 -132.20000000000002L1243.7316 -49.2Q1225.1316000000002 -25.0 1209.0316000000003 -4.4Q1192.9316000000001 16.2 1179.1316000000002 33.6Q1220.9316000000001 12.200000000000001 1256.3316 -15.5Q1291.7316 -43.2 1323.3316 -81.2L1327.3316 -77.80000000000001Q1292.3316 -36.0 1254.3316 -7.299999999999999Q1216.3316 21.400000000000002 1171.5316 42.800000000000004Q1141.7316 79.60000000000001 1120.6316000000002 102.30000000000001Q1099.5316 125.0 1083.4316 136.9Q1067.3316 148.8 1053.0316 153.10000000000002Q1038.7316 157.4 1022.5316 157.4ZM1144.5316 -5.6000000000000005Q1155.7316 -5.6000000000000005 1177.7316 -19.900000000000002Q1199.7316 -34.2 1230.5316 -70.2L1246.1316000000002 -89.2Q1250.9316000000001 -96.2 1254.8316 -104.2Q1258.7316 -112.2 1258.7316 -118.80000000000001Q1258.5316 -130.8 1240.7316 -130.8Q1231.3316 -130.8 1209.5316 -116.5Q1187.7316 -102.2 1162.9316000000001 -71.2Q1148.3316 -53.0 1141.4316 -39.3Q1134.5316 -25.6 1134.7316 -16.0Q1135.3316 -5.6000000000000005 1144.5316 -5.6000000000000005ZM1023.1316 152.0Q1033.3316 152.0 1043.4316 147.9Q1053.5316 143.8 1066.0316 133.3Q1078.5316 122.80000000000001 1095.7316 103.80000000000001Q1112.9316000000001 84.80000000000001 1137.5316 55.2Q1090.5316 75.60000000000001 1062.4316 91.30000000000001Q1034.3316 107.0 1021.8316 119.7Q1009.3316000000001 132.4 1009.3316000000001 144.0Q1009.3316000000001 146.20000000000002 1013.1316000000002 149.10000000000002Q1016.9316000000001 152.0 1023.1316 152.0ZM1355.1316000000002 0.4Q1343.9316000000001 0.4 1336.9316000000001 -5.3Q1329.9316000000001 -11.0 1329.9316000000001 -20.200000000000003Q1329.9316000000001 -36.2 1353.3316 -58.800000000000004Q1376.7316 -81.4 1416.7316 -108.2Q1396.3316 -111.60000000000001 1381.6316000000002 -115.0Q1366.9316000000001 -118.4 1358.1316000000002 -122.4Q1354.1316000000002 -114.4 1346.5316000000003 -102.80000000000001Q1338.9316000000001 -91.2 1327.1316000000002 -77.80000000000001Q1319.1316000000002 -68.4 1315.1316000000002 -64.60000000000001Q1311.1316000000002 -60.800000000000004 1309.6316000000002 -60.10000000000001Q1308.1316000000002 -59.400000000000006 1307.9316000000001 -59.0Q1307.3316 -58.800000000000004 1307.2316 -60.2Q1307.1316000000002 -61.6 1307.3316 -62.400000000000006Q1307.3316 -63.2 1310.3316 -66.2Q1313.3316 -69.2 1322.9316000000001 -81.2Q1332.9316000000001 -93.80000000000001 1340.7316 -105.20000000000002Q1348.5316 -116.60000000000001 1352.7316 -125.2Q1345.5316 -129.8 1344.3316 -135.4Q1342.7316 -145.0 1348.1316000000002 -152.8Q1353.5316 -160.60000000000002 1362.1316000000002 -160.60000000000002Q1372.7316 -160.60000000000002 1372.7316 -151.4Q1372.7316 -146.8 1370.9316000000001 -143.60000000000002Q1369.1316000000002 -140.4 1367.3316 -137.4Q1363.7316 -133.20000000000002 1363.7316 -126.80000000000001Q1363.7316 -124.80000000000001 1370.6316000000002 -122.5Q1377.5316 -120.2 1387.6316000000002 -118.1Q1397.7316 -116.0 1407.5316 -114.5Q1417.3316 -113.0 1422.9316000000001 -112.60000000000001Q1426.7316 -112.4 1427.6316000000002 -111.30000000000001Q1428.5316 -110.2 1428.5316 -109.60000000000001Q1428.5316 -107.60000000000001 1422.7316 -103.0Q1411.7316 -94.60000000000001 1400.1316000000002 -82.7Q1388.5316 -70.8 1378.5316 -58.1Q1368.5316 -45.400000000000006 1362.3316 -34.2Q1356.1316000000002 -23.0 1356.1316000000002 -15.8Q1356.1316000000002 -6.4 1363.7316 -6.4Q1373.5316 -6.4 1385.1316000000002 -13.0Q1396.7316 -19.6 1408.6316000000002 -29.6Q1420.5316 -39.6 1431.0316 -50.3Q1441.5316 -61.0 1449.1316000000002 -69.5Q1456.7316 -78.0 1459.7316 -81.2L1463.7316 -77.80000000000001Q1459.3316 -73.60000000000001 1451.2316 -64.5Q1443.1316000000002 -55.400000000000006 1432.3316 -44.300000000000004Q1421.5316 -33.2 1408.8316 -23.0Q1396.1316000000002 -12.8 1382.5316000000003 -6.2Q1368.9316000000001 0.4 1355.1316000000002 0.4ZM1457.7316 0.4Q1444.9316000000001 0.4 1439.0316000000003 -6.6000000000000005Q1433.1316000000002 -13.600000000000001 1433.1316000000002 -25.8Q1433.1316000000002 -39.2 1438.8316000000002 -54.400000000000006Q1444.5316000000003 -69.60000000000001 1457.7316 -84.60000000000001Q1484.7316 -116.0 1508.2316 -126.5Q1531.7316 -137.0 1552.3316000000002 -137.0Q1562.7316 -137.0 1569.9316000000001 -132.60000000000002Q1577.1316000000002 -128.20000000000002 1577.1316000000002 -120.60000000000001Q1577.1316000000002 -114.80000000000001 1574.7316 -108.80000000000001Q1581.1316000000002 -116.4 1585.6316000000002 -122.10000000000001Q1590.1316000000002 -127.80000000000001 1594.3316000000002 -133.0Q1599.5316000000003 -131.4 1606.3316000000002 -131.4Q1609.1316000000002 -131.4 1613.9316000000001 -131.60000000000002Q1618.7316 -131.8 1621.3316000000002 -132.20000000000002L1553.9316000000001 -51.0Q1541.1316000000002 -35.800000000000004 1535.5316000000003 -26.300000000000004Q1529.9316000000001 -16.8 1529.9316000000001 -11.600000000000001Q1529.9316000000001 -5.2 1536.1316000000002 -5.2Q1546.9316000000001 -5.2 1558.5316000000003 -11.5Q1570.1316000000002 -17.8 1581.3316000000002 -27.700000000000003Q1592.5316000000003 -37.6 1602.3316000000002 -48.3Q1612.1316000000002 -59.0 1619.6316000000002 -68.1Q1627.1316000000002 -77.2 1631.1316000000002 -81.60000000000001L1635.1316000000002 -78.2Q1630.7316 -73.2 1622.7316 -63.800000000000004Q1614.7316 -54.400000000000006 1604.4316000000001 -43.400000000000006Q1594.1316000000002 -32.4 1582.2316 -22.4Q1570.3316000000002 -12.4 1557.8316000000002 -6.0Q1545.3316000000002 0.4 1533.1316000000002 0.4Q1513.1316000000002 0.4 1513.1316000000002 -12.0Q1513.1316000000002 -16.6 1514.8316000000002 -21.3Q1516.5316000000003 -26.0 1521.7316 -33.5Q1526.9316000000001 -41.0 1537.3316000000002 -53.6L1535.3316000000002 -54.400000000000006Q1510.9316000000001 -24.400000000000002 1490.2316 -12.000000000000002Q1469.5316000000003 0.4 1457.7316 0.4ZM1458.5316000000003 -5.6000000000000005Q1471.3316000000002 -5.6000000000000005 1492.3316000000002 -20.5Q1513.3316000000002 -35.4 1542.7316 -70.2Q1547.5316000000003 -76.0 1551.6316000000002 -81.0Q1555.7316 -86.0 1559.5316000000003 -90.4Q1564.1316000000002 -97.4 1567.8316000000002 -105.0Q1571.5316000000003 -112.60000000000001 1571.5316000000003 -118.80000000000001Q1571.5316000000003 -125.0 1567.1316000000002 -127.9Q1562.7316 -130.8 1557.5316000000003 -130.8Q1547.7316 -130.8 1525.8316 -116.70000000000002Q1503.9316000000001 -102.60000000000001 1477.7316 -71.60000000000001Q1462.7316 -53.6 1456.1316000000002 -39.6Q1449.5316000000003 -25.6 1449.5316000000003 -16.0Q1449.5316000000003 -5.6000000000000005 1458.5316000000003 -5.6000000000000005ZM1484.7316000000003 141.8Q1482.3316000000002 141.8 1477.6316000000002 141.3Q1472.9316000000001 140.8 1470.1316000000002 140.0Q1485.5316000000003 119.2 1504.9316000000003 93.0Q1524.3316000000002 66.8 1545.0316000000003 38.4Q1565.7316000000003 10.0 1585.4316000000003 -17.3Q1605.1316000000002 -44.6 1620.7316000000003 -67.4Q1632.3316000000002 -83.4 1640.1316000000002 -94.0Q1647.9316000000001 -104.60000000000001 1654.6316000000002 -113.4Q1661.3316000000002 -122.2 1669.0316000000003 -132.4Q1676.7316000000003 -142.6 1687.8316000000002 -157.5Q1698.9316000000001 -172.4 1715.9316000000001 -195.4Q1723.1316000000002 -194.60000000000002 1727.4316000000003 -194.40000000000003Q1731.7316000000003 -194.20000000000002 1734.7316000000003 -194.20000000000002Q1737.5316000000003 -194.20000000000002 1740.4316000000003 -194.5Q1743.3316000000002 -194.8 1746.1316000000002 -195.60000000000002Q1728.5316000000003 -174.20000000000002 1716.5316000000003 -159.70000000000002Q1704.5316000000003 -145.20000000000002 1696.3316000000002 -135.10000000000002Q1688.1316000000002 -125.0 1681.7316 -116.80000000000001Q1675.3316000000002 -108.60000000000001 1669.0316000000003 -100.20000000000002Q1662.7316000000003 -91.80000000000001 1654.5316000000003 -80.70000000000002Q1646.3316000000002 -69.60000000000001 1634.1316000000002 -53.2L1635.5316000000003 -51.6Q1697.7316000000003 -111.4 1727.3316000000002 -126.80000000000001Q1736.7316000000003 -131.6 1744.0316000000003 -134.3Q1751.3316000000002 -137.0 1763.5316000000003 -137.0Q1773.5316000000003 -137.0 1778.0316000000003 -132.4Q1782.5316000000003 -127.80000000000001 1782.5316000000003 -120.4Q1782.5316000000003 -105.2 1769.2316 -87.2Q1755.9316000000001 -69.2 1722.3316000000002 -45.400000000000006Q1702.3316000000002 -31.200000000000003 1696.3316000000002 -24.900000000000002Q1690.3316000000002 -18.6 1690.3316000000002 -14.200000000000001Q1690.3316000000002 -5.2 1704.5316000000003 -5.2Q1718.5316000000003 -5.2 1733.1316000000002 -14.1Q1747.7316000000003 -23.0 1761.3316000000004 -35.900000000000006Q1774.9316000000003 -48.800000000000004 1785.8316000000004 -61.400000000000006Q1796.7316000000003 -74.0 1802.9316000000003 -81.2L1807.3316000000002 -77.80000000000001Q1801.3316000000002 -71.0 1790.2316 -58.2Q1779.1316000000002 -45.400000000000006 1764.6316000000002 -31.900000000000006Q1750.1316000000002 -18.400000000000002 1734.3316000000002 -9.000000000000002Q1718.5316000000003 0.4 1703.3316000000002 0.4Q1691.5316000000003 0.4 1685.8316000000002 -4.9Q1680.1316000000002 -10.200000000000001 1680.1316000000002 -19.400000000000002Q1680.1316000000002 -33.0 1695.1316000000002 -52.0Q1710.1316000000002 -71.0 1745.9316000000001 -97.60000000000001Q1763.7316000000003 -110.4 1767.7316000000003 -116.2Q1771.7316000000003 -122.0 1771.7316000000003 -125.60000000000001Q1771.7316000000003 -128.0 1769.6316000000002 -130.0Q1767.5316000000003 -132.0 1763.5316000000003 -132.0Q1754.1316000000002 -132.0 1745.1316000000002 -128.8Q1736.1316000000002 -125.60000000000001 1725.7316000000003 -119.4Q1712.9316000000001 -112.0 1696.7316 -99.2Q1680.5316000000003 -86.4 1663.3316000000002 -70.5Q1646.1316000000002 -54.6 1629.6316000000002 -37.400000000000006Q1613.1316000000002 -20.200000000000003 1599.3316000000002 -3.8000000000000003Q1589.3316000000002 9.4 1577.0316000000003 27.400000000000002Q1564.7316000000003 45.400000000000006 1552.2316000000003 64.4Q1539.7316000000003 83.4 1529.0316000000003 100.0Q1518.3316000000002 116.60000000000001 1511.4316000000003 127.6Q1504.5316000000003 138.6 1503.5316000000003 140.20000000000002Q1501.5316000000003 140.8 1496.9316000000003 141.3Q1492.3316000000002 141.8 1484.7316000000003 141.8ZM1884.7316000000003 0.4Q1875.5316000000003 0.4 1866.8316000000004 -3.8Q1858.1316000000004 -8.0 1858.1316000000004 -15.0Q1858.1316000000004 -20.400000000000002 1860.6316000000004 -27.700000000000003Q1863.1316000000004 -35.0 1872.1316000000004 -47.8Q1881.1316000000004 -60.6 1900.7316000000003 -82.60000000000001Q1916.5316000000003 -100.4 1922.5316000000003 -110.2Q1928.5316000000003 -120.0 1928.5316000000003 -124.80000000000001Q1928.5316000000003 -127.60000000000001 1926.6316000000002 -129.8Q1924.7316000000003 -132.0 1919.1316000000004 -132.0Q1914.5316000000003 -132.0 1906.6316000000002 -129.4Q1898.7316000000003 -126.80000000000001 1889.3316000000002 -120.60000000000001Q1873.5316000000003 -109.80000000000001 1850.1316000000002 -87.30000000000001Q1826.7316000000003 -64.8 1797.3316000000002 -28.200000000000003L1778.9316000000003 -3.8000000000000003Q1775.7316000000003 -4.4 1772.9316000000003 -4.6000000000000005Q1770.1316000000004 -4.800000000000001 1767.3316000000002 -4.800000000000001Q1760.1316000000004 -4.800000000000001 1755.2316000000003 -4.1000000000000005Q1750.3316000000002 -3.4000000000000004 1748.1316000000004 -2.8000000000000003L1969.5316000000003 -319.0Q1972.1316000000004 -318.8 1976.4316000000003 -318.4Q1980.7316000000003 -318.0 1988.7316000000003 -318.20000000000005Q1990.3316000000004 -318.20000000000005 1992.5316000000003 -318.5Q1994.7316000000003 -318.8 1997.3316000000004 -319.0L1798.9316000000003 -43.6L1799.9316000000003 -41.400000000000006Q1830.5316000000003 -76.60000000000001 1851.9316000000003 -96.70000000000002Q1873.3316000000002 -116.80000000000001 1887.5316000000003 -126.4Q1897.5316000000003 -132.8 1906.0316000000003 -134.9Q1914.5316000000003 -137.0 1920.9316000000003 -137.0Q1933.9316000000003 -137.0 1939.4316000000003 -130.7Q1944.9316000000003 -124.4 1944.5316000000003 -116.80000000000001Q1944.1316000000004 -108.80000000000001 1939.1316000000004 -97.70000000000002Q1934.1316000000004 -86.60000000000001 1921.8316000000004 -70.10000000000001Q1909.5316000000003 -53.6 1887.1316000000004 -29.400000000000002Q1877.1316000000004 -18.6 1875.0316000000003 -15.5Q1872.9316000000003 -12.4 1872.9316000000003 -9.8Q1872.9316000000003 -7.800000000000001 1877.3316000000004 -6.5Q1881.7316000000003 -5.2 1887.1316000000004 -5.2Q1899.7316000000003 -5.2 1912.6316000000002 -12.200000000000001Q1925.5316000000003 -19.200000000000003 1937.5316000000003 -29.800000000000004Q1949.5316000000003 -40.400000000000006 1959.3316000000004 -51.400000000000006Q1969.1316000000004 -62.400000000000006 1975.8316000000004 -70.7Q1982.5316000000003 -79.0 1984.5316000000003 -81.2L1988.9316000000003 -77.80000000000001Q1986.3316000000004 -75.2 1979.4316000000003 -66.5Q1972.5316000000003 -57.800000000000004 1962.1316000000002 -46.5Q1951.7316000000003 -35.2 1939.1316000000002 -24.5Q1926.5316000000003 -13.8 1912.6316000000002 -6.7Q1898.7316000000003 0.4 1884.7316000000003 0.4ZM1868.7316000000005 157.4Q1860.1316000000004 157.4 1855.7316000000005 153.0Q1851.3316000000004 148.6 1851.3316000000004 144.0Q1851.3316000000004 133.20000000000002 1863.8316000000004 120.10000000000001Q1876.3316000000004 107.0 1907.2316000000005 89.80000000000001Q1938.1316000000004 72.60000000000001 1992.9316000000003 49.6Q2009.5316000000005 29.400000000000002 2029.5316000000003 3.8000000000000007Q2049.5316000000003 -21.8 2074.3316000000004 -53.6L2072.1316000000006 -54.400000000000006Q2060.9316000000003 -42.400000000000006 2044.0316000000003 -29.700000000000003Q2027.1316000000004 -17.0 2008.7316000000005 -8.3Q1990.3316000000004 0.4 1974.1316000000004 0.4Q1951.7316000000005 0.4 1951.7316000000005 -16.2Q1951.7316000000005 -23.400000000000002 1954.2316000000005 -30.900000000000006Q1956.7316000000005 -38.400000000000006 1964.0316000000005 -50.400000000000006Q1971.3316000000004 -62.400000000000006 1985.9316000000003 -83.0Q1995.1316000000004 -94.2 2008.0316000000003 -107.4Q2020.9316000000003 -120.60000000000001 2035.9316000000003 -135.8Q2042.3316000000004 -135.20000000000002 2045.4316000000003 -134.9Q2048.5316000000003 -134.6 2053.1316000000006 -134.6Q2061.9316000000003 -134.6 2067.3316000000004 -135.20000000000002Q2053.5316000000003 -122.80000000000001 2045.2316000000003 -114.10000000000001Q2036.9316000000003 -105.4 2030.2316000000005 -97.5Q2023.5316000000005 -89.60000000000001 2014.1316000000004 -79.60000000000001Q2009.5316000000005 -74.4 2001.5316000000005 -65.60000000000001Q1993.5316000000005 -56.800000000000004 1985.2316000000005 -46.900000000000006Q1976.9316000000003 -37.0 1971.2316000000005 -28.200000000000003Q1965.5316000000005 -19.400000000000002 1965.5316000000005 -14.0Q1965.5316000000005 -7.4 1969.1316000000006 -6.1000000000000005Q1972.7316000000005 -4.800000000000001 1975.7316000000005 -4.800000000000001Q1993.7316000000005 -4.800000000000001 2012.8316000000004 -15.100000000000001Q2031.9316000000003 -25.400000000000002 2049.5316000000003 -41.1Q2067.1316000000006 -56.800000000000004 2080.5316000000003 -73.2Q2100.9316000000003 -95.60000000000001 2113.2316 -110.4Q2125.5316000000003 -125.2 2133.5316000000003 -135.20000000000002Q2135.7316000000005 -134.8 2139.1316000000006 -134.3Q2142.5316000000003 -133.8 2145.9316000000003 -133.8Q2148.5316000000003 -133.8 2153.1316000000006 -134.0Q2157.7316000000005 -134.20000000000002 2160.3316000000004 -134.6L2090.7316000000005 -48.800000000000004Q2071.7316000000005 -23.0 2055.4316000000003 -1.3999999999999986Q2039.1316000000004 20.200000000000003 2024.9316000000003 38.2Q2052.5316000000003 25.0 2071.2316 13.3Q2089.9316000000003 1.6 2104.3316000000004 -11.3Q2118.7316000000005 -24.200000000000003 2133.1316000000006 -41.0Q2147.5316000000003 -57.800000000000004 2166.7316000000005 -81.2L2170.9316000000003 -77.80000000000001Q2154.3316000000004 -57.800000000000004 2141.2316000000005 -42.800000000000004Q2128.1316000000006 -27.8 2116.1316000000006 -16.0Q2104.1316000000006 -4.2 2090.5316000000003 5.9Q2076.9316000000003 16.0 2059.5316000000003 25.8Q2042.1316000000004 35.6 2017.9316000000003 47.0Q1989.7316000000005 82.60000000000001 1969.0316000000005 104.4Q1948.3316000000004 126.2 1931.9316000000003 137.70000000000002Q1915.5316000000005 149.20000000000002 1900.5316000000005 153.3Q1885.5316000000005 157.4 1868.7316000000005 157.4ZM1869.5316000000005 152.0Q1880.7316000000005 152.0 1891.5316000000005 148.0Q1902.3316000000004 144.0 1915.2316000000005 133.9Q1928.1316000000004 123.80000000000001 1945.2316000000005 105.4Q1962.3316000000004 87.0 1985.9316000000003 58.2Q1940.3316000000004 77.60000000000001 1912.0316000000005 92.80000000000001Q1883.7316000000005 108.0 1870.7316000000005 120.3Q1857.7316000000005 132.6 1857.7316000000005 144.0Q1857.7316000000005 146.20000000000002 1860.5316000000005 149.10000000000002Q1863.3316000000004 152.0 1869.5316000000005 152.0Z"/>
  </g>
  <circle r="7.80" cx="0" cy="-139.26" fill="url(#nibGlow)">
    <animate attributeName="cx" dur="2.4s" fill="freeze" calcMode="linear"
             keyTimes="0;0.5833;1" values="-34.49;690.55;2205.42"/>
    <animate attributeName="opacity" dur="2.4s" fill="freeze"
             keyTimes="0;0.04;0.95;1" values="0;1;1;0"/>
  </circle>
</svg>
